<?xml version="1.0" encoding="UTF-8" standalone="no"?>
<!-- Generator: Adobe Illustrator 16.0.0, SVG Export Plug-In . SVG Version: 6.00 Build 0)  -->

<svg
   version="1.1"
   id="Capa_1"
   x="0px"
   y="0px"
   width="421.057px"
   height="421.057px"
   viewBox="0 0 421.057 421.057"
   style="enable-background:new 0 0 421.057 421.057;"
   xml:space="preserve"
   sodipodi:docname="folded-paper-tr.svg"
   inkscape:version="1.2.1 (9c6d41e410, 2022-07-14)"
   xmlns:inkscape="http://www.inkscape.org/namespaces/inkscape"
   xmlns:sodipodi="http://sodipodi.sourceforge.net/DTD/sodipodi-0.dtd"
   xmlns="http://www.w3.org/2000/svg"
   xmlns:svg="http://www.w3.org/2000/svg"><defs
   id="defs140" /><sodipodi:namedview
   id="namedview138"
   pagecolor="#ffffff"
   bordercolor="#000000"
   borderopacity="0.25"
   inkscape:showpageshadow="2"
   inkscape:pageopacity="0.0"
   inkscape:pagecheckerboard="true"
   inkscape:deskcolor="#d1d1d1"
   showgrid="false"
   inkscape:zoom="2.4390997"
   inkscape:cx="210.32351"
   inkscape:cy="210.32351"
   inkscape:window-width="2560"
   inkscape:window-height="1411"
   inkscape:window-x="-9"
   inkscape:window-y="-9"
   inkscape:window-maximized="1"
   inkscape:current-layer="Capa_1" />
<g
   id="g105">
	<g
   id="iconos_39_">
		<polygon
   points="0,353.737 115.056,381.277 115.056,77.112 0,42.84   "
   id="polygon98" />
		<polygon
   points="124.542,383.724 287.027,345.781 287.027,39.475 124.542,78.03   "
   id="polygon100" />
		<polygon
   points="296.514,37.333 296.514,343.333 421.057,383.724 421.057,78.948   "
   id="polygon102" />
	</g>
</g>
<g
   id="g107">
</g>
<g
   id="g109">
</g>
<g
   id="g111">
</g>
<g
   id="g113">
</g>
<g
   id="g115">
</g>
<g
   id="g117">
</g>
<g
   id="g119">
</g>
<g
   id="g121">
</g>
<g
   id="g123">
</g>
<g
   id="g125">
</g>
<g
   id="g127">
</g>
<g
   id="g129">
</g>
<g
   id="g131">
</g>
<g
   id="g133">
</g>
<g
   id="g135">
</g>
<path
   style="fill:#ffffff;stroke-width:0.409987"
   d="M 61.90809,368.31151 C 32.932234,361.37242 7.1491544,355.20874 4.6123577,354.61445 L 0,353.53392 V 198.3938 C 0,113.06673 0.13837073,43.254541 0.30749051,43.255611 0.82350928,43.258879 114.38224,77.141717 114.59702,77.356504 c 0.11029,0.110293 0.15416,68.459006 0.0975,151.886036 l -0.10305,151.6855 z"
   id="path804" /><path
   style="fill:#ffffff;stroke-width:0.409987"
   d="M 124.63615,230.84479 V 78.245816 l 23.67677,-5.620411 c 13.02223,-3.091226 49.55235,-11.761173 81.17804,-19.266547 l 57.50127,-13.646136 -0.10304,152.948348 -0.10304,152.94836 -79.33255,18.53686 c -43.63291,10.19527 -80.11665,18.708 -81.075,18.91717 l -1.74245,0.3803 z"
   id="path806" /><path
   style="fill:#ffffff;stroke-width:0.409987"
   d="m 358.84143,363.33489 -62.01059,-20.143 V 190.55786 c 0,-83.94872 0.13769,-152.63403 0.30597,-152.63403 0.16829,0 28.11918,9.270381 62.11309,20.600846 l 61.80711,20.600845 V 231.33434 c 0,83.71485 -0.0461,152.19414 -0.1025,152.17619 -0.0564,-0.018 -28.00726,-9.09699 -62.11308,-20.17564 z"
   id="path808" /></svg>
