<?xml version="1.0" encoding="UTF-8" standalone="no"?>
<svg
   width="512px"
   height="512px"
   viewBox="0 0 512 512"
   version="1.1"
   id="svg4"
   sodipodi:docname="rock-tr.svg"
   inkscape:version="1.2.1 (9c6d41e410, 2022-07-14)"
   xmlns:inkscape="http://www.inkscape.org/namespaces/inkscape"
   xmlns:sodipodi="http://sodipodi.sourceforge.net/DTD/sodipodi-0.dtd"
   xmlns="http://www.w3.org/2000/svg"
   xmlns:svg="http://www.w3.org/2000/svg">
  <defs
     id="defs8" />
  <sodipodi:namedview
     id="namedview6"
     pagecolor="#ffffff"
     bordercolor="#000000"
     borderopacity="0.25"
     inkscape:showpageshadow="2"
     inkscape:pageopacity="0.0"
     inkscape:pagecheckerboard="true"
     inkscape:deskcolor="#d1d1d1"
     showgrid="false"
     inkscape:zoom="2.0058594"
     inkscape:cx="255.75073"
     inkscape:cy="255.75073"
     inkscape:window-width="2560"
     inkscape:window-height="1411"
     inkscape:window-x="-9"
     inkscape:window-y="-9"
     inkscape:window-maximized="1"
     inkscape:current-layer="svg4" />
  <path
     fill="#000"
     d="M228.813 23L68.75 72.28 39.5 182.095l47.53-21.22 10.44-4.655 2.5 11.155 8.75 39.125 6.405 28.53-21.75-19.53-15.72-14.125-28.218 32.344 140.657 136 9.656-40.69 7.53-31.874 10.407 31.063 54.72 163.592L432.343 465.5l45.75-202.938-84.563-148.718L228.814 23zm-57.688 49.875l-27.813 39.906-3.25 73.44-27.187-88.94 58.25-24.405zm17.844 93.406l113.124 155.25L407 355.407l-107.375-.844-110.656-128v-60.28zM79.312 330.25l140.125 153.125-5.563-65.875-134.563-87.25z"
     id="path2" />
  <path
     style="fill:#ffffff;stroke-width:0.498539"
     d="m 272.50179,490.89296 c -0.14196,-0.22971 -14.76099,-43.80829 -32.48673,-96.84128 -17.72573,-53.033 -32.38662,-96.59394 -32.57975,-96.80209 -0.19312,-0.20816 -4.12866,15.60801 -8.74565,35.14703 -4.61698,19.53901 -8.56154,35.71434 -8.76567,35.94517 -0.20414,0.23083 -31.29864,-29.46711 -69.09889,-65.99544 C 83.02485,265.81804 51.586731,235.44411 50.962616,234.84874 l -1.134755,-1.08249 13.777897,-15.80426 c 7.577843,-8.69233 13.9396,-15.80425 14.137238,-15.80425 0.197638,0 8.605727,7.42071 18.684641,16.49046 10.078913,9.06975 18.446453,16.3693 18.594533,16.22123 0.24011,-0.24012 -16.514387,-76.12543 -17.256094,-78.15717 -0.253089,-0.69328 -4.913635,1.23831 -28.967634,12.00581 -15.76631,7.05762 -28.704993,12.81205 -28.752629,12.78764 -0.12785,-0.0655 28.819749,-108.688008 29.020796,-108.89714 0.253633,-0.263833 158.388051,-48.962777 159.270401,-49.04878 0.41456,-0.04041 37.70365,20.306671 82.86463,45.21573 l 82.11087,45.2892 42.14413,74.12068 c 23.17928,40.76637 42.14414,74.39158 42.14414,74.72268 0,0.58 -45.36666,202.14586 -45.53409,202.30975 -0.0453,0.0443 -26.89123,4.48886 -59.65773,9.87682 -32.76651,5.38796 -68.31874,11.24072 -79.00498,13.00613 -21.00865,3.47071 -20.52293,3.40583 -20.90219,2.79218 z m 134.30639,-135.6531 c -0.4113,-0.24074 -24.05936,-7.96487 -52.55126,-17.16472 -28.49189,-9.19986 -51.96691,-16.90415 -52.1667,-17.12065 -0.19979,-0.2165 -25.43042,-34.83024 -56.06805,-76.91944 -30.63763,-42.08919 -56.01325,-76.8543 -56.39026,-77.25581 -0.58208,-0.61989 -0.68546,3.86726 -0.68546,29.75084 v 30.48083 l 54.40459,62.9775 c 29.92252,34.63763 54.78867,63.38407 55.25811,63.88098 0.8053,0.85242 3.2453,0.92522 43.18451,1.28849 62.03453,0.56424 65.84665,0.56905 65.01452,0.082 z m -264.82159,-206.02887 1.56489,-36.24567 13.97316,-20.047625 c 7.68524,-11.026187 13.89768,-20.123095 13.80543,-20.215345 -0.17335,-0.173346 -58.06192,23.997689 -58.48379,24.419558 -0.13037,0.130378 5.87333,20.232682 13.34158,44.671802 7.46824,24.43911 13.72605,44.26109 13.90624,44.04885 0.18019,-0.21224 1.03181,-16.69645 1.89249,-36.63157 z"
     id="path237" />
  <path
     style="fill:#ffffff;stroke-width:0.498539"
     d="m 150.40377,407.46186 c -37.44942,-40.92514 -68.021103,-74.47809 -67.937076,-74.56211 0.08403,-0.084 29.635176,18.96352 65.669226,42.32789 l 65.51645,42.48067 2.67562,31.82645 c 1.47159,17.50455 2.56087,31.9412 2.42062,32.08145 -0.14024,0.14024 -30.89542,-33.22922 -68.34484,-74.15435 z"
     id="path239" />
</svg>
