<?xml version="1.0" encoding="UTF-8" standalone="no"?>
<!-- Generator: Adobe Illustrator 16.0.0, SVG Export Plug-In . SVG Version: 6.00 Build 0)  -->

<svg
   version="1.1"
   id="Capa_1"
   x="0px"
   y="0px"
   width="405.43px"
   height="405.43px"
   viewBox="0 0 405.43 405.43"
   style="enable-background:new 0 0 405.43 405.43;"
   xml:space="preserve"
   sodipodi:docname="scissors-tr.svg"
   inkscape:version="1.2.1 (9c6d41e410, 2022-07-14)"
   xmlns:inkscape="http://www.inkscape.org/namespaces/inkscape"
   xmlns:sodipodi="http://sodipodi.sourceforge.net/DTD/sodipodi-0.dtd"
   xmlns="http://www.w3.org/2000/svg"
   xmlns:svg="http://www.w3.org/2000/svg"><defs
   id="defs48" /><sodipodi:namedview
   id="namedview46"
   pagecolor="#ffffff"
   bordercolor="#000000"
   borderopacity="0.25"
   inkscape:showpageshadow="2"
   inkscape:pageopacity="0.0"
   inkscape:pagecheckerboard="true"
   inkscape:deskcolor="#d1d1d1"
   showgrid="false"
   inkscape:zoom="2.533113"
   inkscape:cx="202.91238"
   inkscape:cy="202.91238"
   inkscape:window-width="2560"
   inkscape:window-height="1411"
   inkscape:window-x="-9"
   inkscape:window-y="-9"
   inkscape:window-maximized="1"
   inkscape:current-layer="Capa_1" />
<g
   id="g13">
	<g
   id="g11">
		<g
   id="Layer_5_77_">
			<g
   id="g8">
				<path
   d="M268.515,260.015c-1.523-2.409-8.688-11.193-11.079-14.108c-3.781-4.608-8.095-4.108-11.485-0.034      c-8.271,9.936-19.832,23.728-26.46,31.623c-4.397,5.24-5.228,9.391-1.73,13.266c1.542,1.709,7.954,9.045,7.954,9.045      c-12.342,27.566-7.276,61.031,15.353,83.66c29.284,29.285,76.767,29.285,106.051,0s29.284-76.766,0-106.051      C325.854,256.154,295.029,250.409,268.515,260.015z M320.292,356.642c-13.552,13.551-35.521,13.551-49.068,0      c-13.551-13.55-13.551-35.519,0-49.066c13.549-13.55,35.519-13.55,49.068,0C333.841,321.123,333.841,343.092,320.292,356.642z"
   id="path2" />
				<path
   d="M151.469,208.117c8.522-11.597,22.224-29.08,29.38-38.96c3.598-4.966,3.931-8.799,0.021-14.211      C154.247,118.092,73.446,8.208,73.446,8.208C62.269-4.913,49.637-1.985,45.375,14.716L37.66,44.942      c-4.263,16.7,2.222,40.337,14.409,52.524c0,0,66.482,82.781,88.285,110.658C143.936,212.702,148.467,212.202,151.469,208.117z"
   id="path4" />
				<path
   d="M59.064,273.079c-29.285,29.285-29.285,76.766,0,106.051c29.285,29.285,76.766,29.285,106.051,0      c22.629-22.629,27.693-56.094,15.352-83.66l160.916-192.254c12.188-12.188,18.672-35.823,14.408-52.524l-7.716-30.226      c-4.263-16.701-16.896-19.629-28.069-6.508L142.45,249.074c-1.666,1.956-3.262,4.194-4.787,6.605      C111.148,246.075,80.323,251.821,59.064,273.079z M85.886,303.239c13.551-13.549,35.52-13.549,49.068,0      c13.551,13.551,13.551,35.52,0,49.066c-13.549,13.552-35.518,13.552-49.068,0C72.337,338.759,72.337,316.79,85.886,303.239z"
   id="path6" />
			</g>
		</g>
	</g>
</g>
<g
   id="g15">
</g>
<g
   id="g17">
</g>
<g
   id="g19">
</g>
<g
   id="g21">
</g>
<g
   id="g23">
</g>
<g
   id="g25">
</g>
<g
   id="g27">
</g>
<g
   id="g29">
</g>
<g
   id="g31">
</g>
<g
   id="g33">
</g>
<g
   id="g35">
</g>
<g
   id="g37">
</g>
<g
   id="g39">
</g>
<g
   id="g41">
</g>
<g
   id="g43">
</g>
<path
   style="fill:#ffffff;stroke-width:0.394771"
   d="m 143.01779,210.22724 c -0.69908,-0.42626 -3.54144,-3.65079 -6.31633,-7.16563 C 123.55969,186.41551 83.283496,135.98564 68.084277,117.14596 58.755501,105.58278 49.921719,94.568666 48.453651,92.670144 43.850733,86.717599 39.80056,77.468671 37.843154,68.440132 36.823943,63.739023 36.402172,52.844511 37.086779,48.902725 37.346078,47.409752 39.50486,38.549405 41.884072,29.213067 46.723836,10.221199 47.80837,7.2998053 51.324408,3.7837676 c 3.938561,-3.93856072 8.558207,-4.54291331 14.035072,-1.8360999 5.528348,2.7322577 1.018414,-3.1516791 74.45603,97.1398963 33.22123,45.369246 41.74085,57.160856 42.64165,59.018286 1.22828,2.53269 1.16719,5.54265 -0.16483,8.12109 -0.56886,1.10117 -3.76386,5.63117 -7.09999,10.06667 -25.13668,33.41998 -24.92578,33.15159 -26.83747,34.15311 -1.50262,0.7872 -3.84394,0.69092 -5.33708,-0.21948 z"
   id="path223" /><path
   style="fill:#ffffff;stroke-width:0.394771"
   d="M 104.21959,400.45481 C 83.745446,398.1529 65.155015,387.70365 52.824192,371.56665 41.707564,357.01863 36.481193,339.74283 37.570761,321.14635 c 1.157247,-19.75162 10.859863,-39.10044 25.986856,-51.82264 12.981056,-10.91741 27.770198,-16.79304 45.004453,-17.87997 7.45261,-0.47002 19.19556,1.11115 26.36685,3.55027 l 2.8187,0.9587 2.08631,-2.92568 c 6.33497,-8.88365 180.84075,-239.470944 182.46382,-241.102838 3.76334,-3.7837901 7.87953,-5.8052388 11.82098,-5.8052388 5.54719,0 10.2235,4.1129548 12.7484,11.2125898 1.16474,3.275077 9.17843,35.280965 9.64077,38.504307 0.56909,3.967498 0.28253,11.68619 -0.62029,16.707995 -1.73922,9.67414 -5.96248,19.681791 -11.02172,26.117627 -1.10392,1.404288 -38.43279,46.042278 -82.95305,99.195538 -44.52026,53.15325 -81.08679,96.87271 -81.25896,97.15433 -0.18535,0.3032 0.33217,2.23538 1.26886,4.73726 3.10579,8.29555 4.38768,14.79535 4.68911,23.77601 0.32089,9.56032 -0.72087,17.22855 -3.48472,25.65049 -6.36407,19.39244 -19.60609,34.69899 -37.87197,43.77647 -12.90646,6.41405 -27.30565,9.04691 -41.03557,7.50324 z m 15.90793,-39.20725 c 13.24392,-3.91321 22.65831,-14.68344 24.80255,-28.37455 0.54603,-3.48648 0.22024,-10.19649 -0.66522,-13.70052 -0.91886,-3.63624 -4.04449,-10.04414 -6.2582,-12.83006 -10.99027,-13.83105 -30.30292,-17.47389 -45.43281,-8.56974 -4.210807,2.47812 -9.64456,7.91187 -12.122677,12.12268 -7.368868,12.52113 -6.237366,28.45723 2.829574,39.85181 4.974685,6.25177 13.054451,11.01385 21.136233,12.45736 1.08563,0.19391 4.28327,0.28877 7.10589,0.21082 4.07767,-0.11261 5.84546,-0.35253 8.60466,-1.1678 z"
   id="path225" /><path
   style="fill:#ffffff;stroke-width:0.394771"
   d="m 286.2091,404.79729 c -30.88363,-3.47225 -56.65328,-25.61988 -64.33436,-55.29192 -1.69494,-6.54758 -2.38296,-12.03357 -2.37474,-18.93518 0.0112,-9.42942 1.25783,-16.68055 4.33483,-25.21469 0.90027,-2.49693 1.72288,-4.81017 1.82803,-5.14054 0.11753,-0.36928 -1.53528,-2.58195 -4.29056,-5.74391 -2.46495,-2.82879 -4.71805,-5.71378 -5.00689,-6.41109 -0.82702,-1.99662 -0.36039,-4.8682 1.19441,-7.35015 1.26293,-2.01603 24.93369,-30.58057 28.75768,-34.70315 0.97423,-1.0503 2.25663,-2.16059 2.84977,-2.46732 1.69827,-0.87821 3.91019,-0.69465 5.67719,0.47114 1.46876,0.96902 5.57112,5.75168 11.18031,13.03439 l 2.47007,3.20701 3.46431,-1.11406 c 18.00041,-5.78862 38.38021,-4.11456 55.72532,4.57744 19.17997,9.6115 33.61943,27.56206 38.83576,48.2791 2.22607,8.84101 2.84841,20.16962 1.58432,28.83988 -3.5983,24.68032 -18.58635,45.39067 -40.85988,56.45981 -12.90646,6.41405 -27.30565,9.0469 -41.03557,7.50324 z m 16.19562,-38.47502 c 12.90052,-2.44719 23.58305,-12.33778 27.01681,-25.01395 1.46878,-5.42222 1.47423,-12.726 0.0137,-18.3855 -2.01112,-7.79299 -7.69823,-15.56463 -14.70834,-20.09944 -5.75565,-3.72331 -11.78315,-5.45211 -19.04328,-5.46194 -15.74914,-0.0214 -29.27899,10.2069 -33.55132,25.36399 -1.08193,3.83842 -1.46609,10.79414 -0.81803,14.81148 2.35981,14.62833 13.43708,26.08492 27.85562,28.80946 3.81797,0.72145 9.35779,0.71136 13.23484,-0.0241 z"
   id="path227" /></svg>
